<svg width="136" height="33" viewBox="0 0 136 33" fill="none" xmlns="http://www.w3.org/2000/svg">
<path d="M59.8975 15.8515C60.8465 15.8515 61.6114 16.0022 62.1919 16.3036C62.7725 16.5939 63.0628 16.9847 63.0628 17.476C63.0628 17.7216 62.9902 17.9393 62.8451 18.1291C62.6999 18.3078 62.5101 18.3971 62.2757 18.3971C62.097 18.3971 61.9519 18.3748 61.8402 18.3301C61.7286 18.2743 61.6169 18.2073 61.5053 18.1291C61.4048 18.0398 61.3043 17.9672 61.2038 17.9114C61.0922 17.8556 60.9247 17.8053 60.7014 17.7607C60.4893 17.716 60.3162 17.6937 60.1822 17.6937C59.3449 17.6937 58.6861 17.9561 58.206 18.4808C57.7371 18.9944 57.5026 19.6699 57.5026 20.5073C57.5026 21.3111 57.7427 21.981 58.2228 22.517C58.7029 23.0417 59.3169 23.3041 60.065 23.3041C60.6121 23.3041 61.0196 23.2371 61.2876 23.1031C61.3546 23.0696 61.4439 23.0138 61.5555 22.9357C61.6783 22.8463 61.79 22.7793 61.8905 22.7347C61.991 22.69 62.1138 22.6677 62.2589 22.6677C62.538 22.6677 62.7558 22.757 62.9121 22.9357C63.0795 23.1143 63.1633 23.3432 63.1633 23.6223C63.1633 23.8903 63.007 24.1415 62.6944 24.3759C62.3817 24.6104 61.9686 24.8002 61.455 24.9454C60.9415 25.0793 60.3944 25.1463 59.8138 25.1463C58.9541 25.1463 58.1949 24.9454 57.5361 24.5434C56.8886 24.1415 56.3861 23.5888 56.0289 22.8854C55.6716 22.1709 55.4929 21.3781 55.4929 20.5073C55.4929 19.6029 55.6772 18.799 56.0456 18.0956C56.4252 17.3922 56.95 16.8451 57.6199 16.4544C58.2898 16.0524 59.049 15.8515 59.8975 15.8515ZM66.7916 23.9573C66.7916 24.2475 66.6911 24.4932 66.4902 24.6941C66.3003 24.8839 66.0603 24.9789 65.77 24.9789C65.4909 24.9789 65.2564 24.8839 65.0666 24.6941C64.8768 24.4932 64.7819 24.2475 64.7819 23.9573V13.6073C64.7819 13.317 64.8768 13.077 65.0666 12.8872C65.2676 12.6862 65.5132 12.5857 65.8035 12.5857C66.0826 12.5857 66.3171 12.6862 66.5069 12.8872C66.6967 13.077 66.7916 13.317 66.7916 13.6073V23.9573ZM77.5731 20.5073C77.5731 21.4005 77.3721 22.2043 76.9702 22.9189C76.5682 23.6223 76.0156 24.1694 75.3122 24.5602C74.6199 24.9509 73.8551 25.1463 73.0178 25.1463C72.1692 25.1463 71.3988 24.9509 70.7066 24.5602C70.0144 24.1694 69.4673 23.6223 69.0653 22.9189C68.6634 22.2043 68.4624 21.4005 68.4624 20.5073C68.4624 19.6141 68.6634 18.8158 69.0653 18.1124C69.4673 17.3978 70.0144 16.8451 70.7066 16.4544C71.3988 16.0524 72.1692 15.8515 73.0178 15.8515C73.8551 15.8515 74.6199 16.0524 75.3122 16.4544C76.0156 16.8451 76.5682 17.3978 76.9702 18.1124C77.3721 18.8158 77.5731 19.6141 77.5731 20.5073ZM75.5634 20.5073C75.5634 19.9602 75.4461 19.4745 75.2117 19.0502C74.9884 18.6148 74.6813 18.2799 74.2906 18.0454C73.911 17.8109 73.4867 17.6937 73.0178 17.6937C72.5488 17.6937 72.119 17.8109 71.7282 18.0454C71.3486 18.2799 71.0415 18.6148 70.8071 19.0502C70.5838 19.4745 70.4721 19.9602 70.4721 20.5073C70.4721 21.0544 70.5838 21.54 70.8071 21.9643C71.0415 22.3886 71.3486 22.7179 71.7282 22.9524C72.119 23.1869 72.5488 23.3041 73.0178 23.3041C73.4867 23.3041 73.911 23.1869 74.2906 22.9524C74.6813 22.7179 74.9884 22.3886 75.2117 21.9643C75.4461 21.54 75.5634 21.0544 75.5634 20.5073ZM85.9009 16.0189C86.1912 16.0189 86.4312 16.1194 86.621 16.3204C86.8108 16.5102 86.9057 16.7502 86.9057 17.0405V21.2944C86.9057 22.5002 86.5708 23.4437 85.9009 24.1247C85.2422 24.8058 84.2987 25.1463 83.0706 25.1463C81.8424 25.1463 80.899 24.8058 80.2402 24.1247C79.5815 23.4437 79.2521 22.5002 79.2521 21.2944V17.0405C79.2521 16.7502 79.347 16.5102 79.5368 16.3204C79.7267 16.1194 79.9667 16.0189 80.257 16.0189C80.5473 16.0189 80.7873 16.1194 80.9771 16.3204C81.1669 16.5102 81.2618 16.7502 81.2618 17.0405V21.2944C81.2618 21.9755 81.4126 22.4835 81.714 22.8184C82.0155 23.1422 82.4677 23.3041 83.0706 23.3041C83.6846 23.3041 84.1424 23.1422 84.4439 22.8184C84.7453 22.4835 84.896 21.9755 84.896 21.2944V17.0405C84.896 16.7502 84.9909 16.5102 85.1808 16.3204C85.3706 16.1194 85.6106 16.0189 85.9009 16.0189ZM96.3331 12.5857C96.6234 12.5857 96.8635 12.6806 97.0533 12.8704C97.2431 13.0602 97.338 13.3058 97.338 13.6073V23.9573C97.338 24.2475 97.2431 24.4932 97.0533 24.6941C96.8635 24.8839 96.6234 24.9789 96.3331 24.9789C96.0429 24.9789 95.8028 24.8839 95.613 24.6941C95.4344 24.5043 95.3395 24.2643 95.3283 23.974C95.0492 24.2978 94.6696 24.5769 94.1895 24.8114C93.7205 25.0347 93.2237 25.1463 92.6989 25.1463C91.9286 25.1463 91.2307 24.9509 90.6055 24.5602C89.9803 24.1582 89.4834 23.6056 89.115 22.9022C88.7577 22.1988 88.5791 21.4005 88.5791 20.5073C88.5791 19.6141 88.7577 18.8158 89.115 18.1124C89.4723 17.3978 89.9579 16.8451 90.572 16.4544C91.1972 16.0524 91.8839 15.8515 92.632 15.8515C93.1679 15.8515 93.6703 15.9519 94.1392 16.1529C94.6082 16.3427 95.0045 16.5884 95.3283 16.8898V13.6073C95.3283 13.317 95.4232 13.077 95.613 12.8872C95.8028 12.6862 96.0429 12.5857 96.3331 12.5857ZM92.9502 23.3041C93.6759 23.3041 94.2676 23.0417 94.7254 22.517C95.1832 21.981 95.412 21.3111 95.412 20.5073C95.412 19.7034 95.1832 19.0335 94.7254 18.4976C94.2676 17.9616 93.6759 17.6937 92.9502 17.6937C92.2356 17.6937 91.6494 17.9616 91.1917 18.4976C90.7339 19.0335 90.505 19.7034 90.505 20.5073C90.505 21.3111 90.7283 21.981 91.1749 22.517C91.6327 23.0417 92.2244 23.3041 92.9502 23.3041ZM103.418 15.8515C104.367 15.8515 105.132 16.0022 105.713 16.3036C106.293 16.5939 106.583 16.9847 106.583 17.476C106.583 17.7216 106.511 17.9393 106.366 18.1291C106.221 18.3078 106.031 18.3971 105.796 18.3971C105.618 18.3971 105.472 18.3748 105.361 18.3301C105.249 18.2743 105.138 18.2073 105.026 18.1291C104.925 18.0398 104.825 17.9672 104.724 17.9114C104.613 17.8556 104.445 17.8053 104.222 17.7607C104.01 17.716 103.837 17.6937 103.703 17.6937C102.865 17.6937 102.207 17.9561 101.727 18.4808C101.258 18.9944 101.023 19.6699 101.023 20.5073C101.023 21.3111 101.263 21.981 101.743 22.517C102.223 23.0417 102.838 23.3041 103.586 23.3041C104.133 23.3041 104.54 23.2371 104.808 23.1031C104.875 23.0696 104.964 23.0138 105.076 22.9357C105.199 22.8463 105.311 22.7793 105.411 22.7347C105.512 22.69 105.634 22.6677 105.78 22.6677C106.059 22.6677 106.276 22.757 106.433 22.9357C106.6 23.1143 106.684 23.3432 106.684 23.6223C106.684 23.8903 106.528 24.1415 106.215 24.3759C105.902 24.6104 105.489 24.8002 104.976 24.9454C104.462 25.0793 103.915 25.1463 103.334 25.1463C102.475 25.1463 101.715 24.9454 101.057 24.5434C100.409 24.1415 99.9067 23.5888 99.5495 22.8854C99.1922 22.1709 99.0135 21.3781 99.0135 20.5073C99.0135 19.6029 99.1978 18.799 99.5662 18.0956C99.9458 17.3922 100.471 16.8451 101.14 16.4544C101.81 16.0524 102.57 15.8515 103.418 15.8515ZM115.387 15.8515C115.677 15.8515 115.917 15.9464 116.107 16.1362C116.297 16.326 116.392 16.5716 116.392 16.8731V23.9573C116.392 24.2475 116.297 24.4932 116.107 24.6941C115.917 24.8839 115.677 24.9789 115.387 24.9789C115.096 24.9789 114.856 24.8839 114.667 24.6941C114.488 24.5043 114.393 24.2643 114.382 23.974C114.103 24.2978 113.723 24.5769 113.243 24.8114C112.774 25.0347 112.277 25.1463 111.752 25.1463C110.982 25.1463 110.284 24.9509 109.659 24.5602C109.034 24.1582 108.537 23.6056 108.169 22.9022C107.811 22.1988 107.633 21.4005 107.633 20.5073C107.633 19.6141 107.811 18.8158 108.169 18.1124C108.526 17.3978 109.011 16.8451 109.626 16.4544C110.251 16.0524 110.937 15.8515 111.686 15.8515C112.221 15.8515 112.724 15.9519 113.193 16.1529C113.662 16.3427 114.058 16.5884 114.382 16.8898V16.8731C114.382 16.5828 114.477 16.3427 114.667 16.1529C114.856 15.9519 115.096 15.8515 115.387 15.8515ZM112.004 23.3041C112.729 23.3041 113.321 23.0417 113.779 22.517C114.237 21.981 114.466 21.3111 114.466 20.5073C114.466 19.7034 114.237 19.0335 113.779 18.4976C113.321 17.9616 112.729 17.6937 112.004 17.6937C111.289 17.6937 110.703 17.9616 110.245 18.4976C109.787 19.0335 109.559 19.7034 109.559 20.5073C109.559 21.3111 109.782 21.981 110.228 22.517C110.686 23.0417 111.278 23.3041 112.004 23.3041ZM118.05 23.5888C117.95 23.4548 117.9 23.2874 117.9 23.0864C117.9 22.7961 118.045 22.5505 118.335 22.3495C118.491 22.249 118.653 22.1988 118.821 22.1988C119.055 22.1988 119.278 22.3048 119.491 22.517C119.826 22.8631 120.172 23.1199 120.529 23.2874C120.897 23.4548 121.338 23.5386 121.852 23.5386C122.723 23.5051 123.158 23.1757 123.158 22.5505C123.158 22.2267 123.008 21.981 122.706 21.8136C122.416 21.6461 121.958 21.4786 121.333 21.3111C120.685 21.1325 120.155 20.9539 119.742 20.7752C119.34 20.5966 118.988 20.3286 118.687 19.9713C118.396 19.6029 118.251 19.1116 118.251 18.4976C118.251 17.9616 118.402 17.4983 118.703 17.1075C119.016 16.7056 119.418 16.3985 119.909 16.1864C120.412 15.9631 120.942 15.8515 121.5 15.8515C122.07 15.8515 122.639 15.9575 123.209 16.1697C123.778 16.3818 124.225 16.6944 124.548 17.1075C124.694 17.2862 124.766 17.4871 124.766 17.7104C124.766 17.9672 124.66 18.1794 124.448 18.3468C124.292 18.4697 124.113 18.5311 123.912 18.5311C123.666 18.5311 123.465 18.4529 123.309 18.2966C123.108 18.051 122.846 17.8556 122.522 17.7104C122.209 17.5653 121.852 17.4927 121.45 17.4927C120.602 17.4927 120.177 17.7998 120.177 18.4138C120.177 18.6595 120.255 18.8604 120.412 19.0167C120.568 19.1619 120.763 19.2791 120.998 19.3684C121.244 19.4466 121.584 19.5471 122.019 19.6699C122.622 19.8374 123.125 20.0104 123.527 20.1891C123.929 20.3677 124.269 20.6412 124.548 21.0097C124.827 21.3781 124.967 21.8638 124.967 22.4667C124.967 23.0138 124.805 23.4939 124.481 23.907C124.158 24.309 123.739 24.616 123.225 24.8281C122.723 25.0403 122.204 25.1463 121.668 25.1463C120.931 25.1463 120.244 25.0235 119.608 24.7779C118.971 24.5323 118.452 24.1359 118.05 23.5888ZM131.355 15.8515C132.46 15.8515 133.225 16.192 133.649 16.8731C134.074 17.543 134.286 18.4752 134.286 19.6699V23.9573C134.286 24.2475 134.191 24.4932 134.001 24.6941C133.811 24.8839 133.571 24.9789 133.281 24.9789C132.991 24.9789 132.751 24.8839 132.561 24.6941C132.371 24.4932 132.276 24.2475 132.276 23.9573V19.6699C132.276 19.0558 132.153 18.5757 131.908 18.2296C131.673 17.8723 131.254 17.6937 130.652 17.6937C130.026 17.6937 129.535 17.8835 129.178 18.2631C128.832 18.6315 128.659 19.1005 128.659 19.6699V23.9573C128.659 24.2475 128.564 24.4932 128.374 24.6941C128.184 24.8839 127.944 24.9789 127.654 24.9789C127.363 24.9789 127.123 24.8839 126.934 24.6941C126.744 24.4932 126.649 24.2475 126.649 23.9573V13.6073C126.649 13.317 126.744 13.077 126.934 12.8872C127.123 12.6862 127.363 12.5857 127.654 12.5857C127.944 12.5857 128.184 12.6862 128.374 12.8872C128.564 13.077 128.659 13.317 128.659 13.6073V17.3085C128.96 16.9066 129.34 16.566 129.797 16.2869C130.266 15.9966 130.785 15.8515 131.355 15.8515Z" fill="#0F4264"/>
<path d="M18.0501 23.9097C18.0501 28.8164 14.0724 32.7941 9.16565 32.7941C4.25893 32.7941 0.28125 28.8164 0.28125 23.9097C0.28125 21.3227 1.38695 18.994 3.15156 17.3703C4.73385 15.9143 6.84593 15.0253 9.16565 15.0253C14.0724 15.0253 18.0501 19.003 18.0501 23.9097Z" fill="#197BBD"/>
<path d="M43.6911 23.9097C43.6911 28.8164 39.7134 32.7941 34.8067 32.7941C29.8999 32.7941 25.9223 28.8164 25.9223 23.9097C25.9223 23.2829 25.9872 22.6713 26.1106 22.0812C26.9536 18.0517 30.5267 15.0253 34.8067 15.0253C39.7134 15.0253 43.6911 19.003 43.6911 23.9097Z" fill="#197BBD"/>
<path d="M33.7136 13.2885C33.7136 17.7601 30.4102 21.4601 26.1106 22.0812C25.6922 22.1417 25.2644 22.1729 24.8292 22.1729C20.5169 22.1729 16.9221 19.1005 16.1145 15.0253C16.0032 14.4636 15.9448 13.8829 15.9448 13.2885C15.9448 12.508 16.0455 11.7509 16.2345 11.0296C17.2339 7.21691 20.7031 4.40414 24.8292 4.40414C29.7359 4.40414 33.7136 8.38183 33.7136 13.2885Z" fill="#197BBD"/>
<path d="M18.0501 23.9097C18.0501 28.8164 14.0724 32.7941 9.16565 32.7941H34.8067C29.8999 32.7941 25.9223 28.8164 25.9223 23.9097C25.9223 23.2829 25.9872 22.6713 26.1106 22.0812C25.6922 22.1417 25.2644 22.1729 24.8292 22.1729C20.5169 22.1729 16.9221 19.1005 16.1145 15.0253H10.3191H9.16565C14.0724 15.0253 18.0501 19.003 18.0501 23.9097Z" fill="#197BBD"/>
<path d="M16.1145 15.0253C16.0032 14.4636 15.9448 13.8829 15.9448 13.2885C15.9448 12.508 16.0455 11.7509 16.2345 11.0296C15.4921 12.3615 13.2697 15.0253 10.3191 15.0253H16.1145Z" fill="#197BBD"/>
<circle cx="33.9484" cy="10.9484" r="8.01481" transform="rotate(-30 33.9484 10.9484)" fill="#FFC145"/>
<path d="M37.184 11.1382C37.47 11.6336 37.5442 12.1484 37.4065 12.6826C37.2688 13.2168 36.9728 13.6922 36.5185 14.109L36.864 14.7073C36.9606 14.8746 36.9825 15.0464 36.9299 15.2226C36.8874 15.4016 36.7825 15.5394 36.6152 15.6359C36.4543 15.7288 36.2858 15.7489 36.1095 15.6963C35.937 15.65 35.8024 15.5433 35.7058 15.376L35.3938 14.8355C35.0278 15.0039 34.6666 15.1138 34.3102 15.1652C33.9602 15.2128 33.5832 15.1988 33.1793 15.1232C32.9164 15.0691 32.7311 14.9487 32.6234 14.7621C32.5379 14.6142 32.5183 14.4539 32.5646 14.2814C32.6071 14.1024 32.7055 13.9684 32.86 13.8792C32.9822 13.8086 33.1139 13.7841 33.255 13.8056C33.5473 13.8513 33.8114 13.8704 34.0473 13.8629C34.2794 13.8489 34.511 13.7967 34.7419 13.7063L33.6553 11.8243C32.2246 12.3329 31.2046 12.0596 30.5954 11.0044C30.2871 10.4704 30.2146 9.92888 30.3781 9.37984C30.5378 8.82438 30.8817 8.34273 31.4097 7.93491L31.2259 7.61642C31.1293 7.44913 31.1041 7.27922 31.1503 7.10669C31.1993 6.92401 31.3074 6.78438 31.4747 6.6878C31.6355 6.59493 31.8041 6.57482 31.9803 6.62749C32.1529 6.67372 32.2874 6.78048 32.384 6.94776L32.5902 7.30486C33.1928 7.08562 33.7583 7.02504 34.2868 7.12314C34.5588 7.16339 34.7506 7.28003 34.862 7.47306C34.9475 7.62104 34.9689 7.78452 34.9264 7.96348C34.8802 8.13601 34.7831 8.265 34.6351 8.35044C34.5386 8.40616 34.435 8.42735 34.3243 8.41402C34.0385 8.36461 33.6851 8.38416 33.2644 8.47265L34.2952 10.2581C35.0048 10.0458 35.5847 10.0026 36.035 10.1287C36.4815 10.2484 36.8645 10.5849 37.184 11.1382ZM31.7064 10.2987C31.829 10.511 31.9968 10.6457 32.21 10.7028C32.4194 10.7535 32.6783 10.7413 32.9866 10.6662L32.0617 9.0641C31.8276 9.26788 31.682 9.47633 31.6249 9.68945C31.5678 9.90258 31.595 10.1057 31.7064 10.2987ZM35.8499 12.9508C35.9919 12.7659 36.0855 12.5788 36.1307 12.3897C36.1723 12.1942 36.1503 12.0224 36.0649 11.8744C35.9608 11.6943 35.8202 11.5696 35.643 11.5003C35.462 11.4246 35.2394 11.4031 34.975 11.4356L35.8499 12.9508Z" fill="#404040"/>
</svg>
