<svg width="127" height="36" viewBox="0 0 127 36" fill="none" xmlns="http://www.w3.org/2000/svg">
<circle cx="109.449" cy="18.002" r="17.5292" fill="#FFC145"/>
<mask id="mask0_1_608" style="mask-type:alpha" maskUnits="userSpaceOnUse" x="91" y="0" width="36" height="36">
<circle cx="109.449" cy="18.002" r="17.5292" fill="#FFC145"/>
</mask>
<g mask="url(#mask0_1_608)">
</g>
<g clip-path="url(#clip0_1_608)">
<path d="M62.0916 15.002C62.0916 13.4107 61.4594 11.8846 60.3342 10.7594C59.209 9.63419 57.6829 9.00204 56.0916 9.00204C54.5003 9.00204 52.9741 9.63419 51.8489 10.7594C50.7237 11.8846 50.0916 13.4107 50.0916 15.002C50.0916 22.002 47.0916 24.002 47.0916 24.002H65.0916C65.0916 24.002 62.0916 22.002 62.0916 15.002Z" fill="#E3E3E3"/>
<path d="M57.8216 28.002C57.6458 28.3051 57.3934 28.5567 57.0898 28.7316C56.7862 28.9065 56.442 28.9985 56.0916 28.9985C55.7412 28.9985 55.397 28.9065 55.0933 28.7316C54.7897 28.5567 54.5374 28.3051 54.3616 28.002" stroke="#E3E3E3" stroke-width="2" stroke-linecap="round" stroke-linejoin="round"/>
<circle cx="61.793" cy="11.7004" r="3.97196" fill="#BB4430"/>
</g>
<path d="M4.09155 11.002H20.0916C21.1916 11.002 22.0916 11.902 22.0916 13.002V25.002C22.0916 26.102 21.1916 27.002 20.0916 27.002H4.09155C2.99155 27.002 2.09155 26.102 2.09155 25.002V13.002C2.09155 11.902 2.99155 11.002 4.09155 11.002Z" fill="#E3E3E3"/>
<path d="M22.0916 13.002L12.0916 20.002L2.09155 13.002" stroke="white" stroke-width="2" stroke-linecap="round" stroke-linejoin="round"/>
<mask id="mask1_1_608" style="mask-type:alpha" maskUnits="userSpaceOnUse" x="91" y="0" width="36" height="36">
<circle cx="109.449" cy="18.002" r="17.5292" fill="#FFC145"/>
</mask>
<g mask="url(#mask1_1_608)">
<path d="M120.282 37.6196V34.0387C120.282 32.1393 119.711 30.3177 118.695 28.9747C117.679 27.6316 116.302 26.877 114.865 26.877H104.032C102.596 26.877 101.218 27.6316 100.202 28.9747C99.1866 30.3177 98.616 32.1393 98.616 34.0387V37.6196" fill="#197BBD"/>
<path d="M109.447 21.4599C112.439 21.4599 114.864 19.0349 114.864 16.0435C114.864 13.0521 112.439 10.627 109.447 10.627C106.456 10.627 104.031 13.0521 104.031 16.0435C104.031 19.0349 106.456 21.4599 109.447 21.4599Z" fill="white"/>
</g>
<defs>
<clipPath id="clip0_1_608">
<rect width="24" height="24" fill="white" transform="translate(44.0916 7.00204)"/>
</clipPath>
</defs>
</svg>
