<svg width="20" height="20" viewBox="0 0 20 20" fill="none" xmlns="http://www.w3.org/2000/svg">
<path d="M9.98656 12.3153C11.2651 12.3153 12.3015 11.2789 12.3015 10.0004C12.3015 8.72186 11.2651 7.68543 9.98656 7.68543C8.70806 7.68543 7.67163 8.72186 7.67163 10.0004C7.67163 11.2789 8.70806 12.3153 9.98656 12.3153Z" stroke="#C7C7C7" stroke-width="2" stroke-linecap="round" stroke-linejoin="round"/>
<path d="M15.6965 12.3151C15.5938 12.5478 15.5632 12.806 15.6086 13.0563C15.654 13.3066 15.7733 13.5376 15.9512 13.7195L15.9975 13.7658C16.141 13.9091 16.2548 14.0793 16.3325 14.2667C16.4101 14.454 16.4501 14.6549 16.4501 14.8577C16.4501 15.0605 16.4101 15.2613 16.3325 15.4486C16.2548 15.636 16.141 15.8062 15.9975 15.9495C15.8542 16.093 15.6839 16.2069 15.4966 16.2845C15.3092 16.3622 15.1084 16.4022 14.9056 16.4022C14.7028 16.4022 14.502 16.3622 14.3146 16.2845C14.1273 16.2069 13.9571 16.093 13.8137 15.9495L13.7674 15.9032C13.5856 15.7253 13.3546 15.606 13.1043 15.5606C12.854 15.5152 12.5958 15.5459 12.363 15.6486C12.1348 15.7464 11.9402 15.9088 11.8031 16.1159C11.666 16.3229 11.5924 16.5655 11.5914 16.8138V16.945C11.5914 17.3543 11.4288 17.7468 11.1394 18.0362C10.85 18.3257 10.4574 18.4882 10.0481 18.4882C9.6388 18.4882 9.24626 18.3257 8.95684 18.0362C8.66741 17.7468 8.50482 17.3543 8.50482 16.945V16.8755C8.49884 16.6201 8.41617 16.3724 8.26755 16.1646C8.11892 15.9568 7.91122 15.7985 7.67144 15.7103C7.4387 15.6076 7.18053 15.577 6.93021 15.6224C6.67989 15.6677 6.44891 15.7871 6.26705 15.965L6.22075 16.0113C6.07742 16.1548 5.90721 16.2686 5.71986 16.3463C5.53251 16.4239 5.33169 16.4639 5.12888 16.4639C4.92606 16.4639 4.72524 16.4239 4.53789 16.3463C4.35054 16.2686 4.18033 16.1548 4.037 16.0113C3.89351 15.8679 3.77968 15.6977 3.70201 15.5104C3.62435 15.323 3.58437 15.1222 3.58437 14.9194C3.58437 14.7166 3.62435 14.5158 3.70201 14.3284C3.77968 14.1411 3.89351 13.9708 4.037 13.8275L4.0833 13.7812C4.26119 13.5994 4.38052 13.3684 4.42591 13.1181C4.4713 12.8677 4.44066 12.6096 4.33794 12.3768C4.24012 12.1486 4.07771 11.954 3.87068 11.8169C3.66366 11.6797 3.42106 11.6062 3.17276 11.6052H3.04158C2.63227 11.6052 2.23973 11.4426 1.95031 11.1532C1.66089 10.8637 1.49829 10.4712 1.49829 10.0619C1.49829 9.65259 1.66089 9.26005 1.95031 8.97063C2.23973 8.6812 2.63227 8.51861 3.04158 8.51861H3.11103C3.36644 8.51263 3.61414 8.42996 3.82194 8.28134C4.02974 8.13271 4.18802 7.92501 4.27621 7.68523C4.37893 7.45249 4.40957 7.19432 4.36418 6.944C4.31879 6.69368 4.19946 6.4627 4.02157 6.28084L3.97527 6.23454C3.83178 6.09121 3.71795 5.921 3.64028 5.73365C3.56262 5.5463 3.52264 5.34548 3.52264 5.14267C3.52264 4.93985 3.56262 4.73903 3.64028 4.55168C3.71795 4.36433 3.83178 4.19412 3.97527 4.05079C4.1186 3.9073 4.2888 3.79347 4.47616 3.7158C4.66351 3.63814 4.86433 3.59816 5.06714 3.59816C5.26996 3.59816 5.47078 3.63814 5.65813 3.7158C5.84548 3.79347 6.01569 3.9073 6.15902 4.05079L6.20532 4.09709C6.38718 4.27498 6.61816 4.39431 6.86848 4.4397C7.1188 4.48509 7.37697 4.45445 7.60971 4.35173H7.67144C7.89967 4.25391 8.09432 4.0915 8.23142 3.88447C8.36852 3.67745 8.4421 3.43485 8.44309 3.18655V3.05537C8.44309 2.64606 8.60568 2.25352 8.8951 1.9641C9.18453 1.67468 9.57707 1.51208 9.98637 1.51208C10.3957 1.51208 10.7882 1.67468 11.0776 1.9641C11.3671 2.25352 11.5297 2.64606 11.5297 3.05537V3.12482C11.5307 3.37312 11.6042 3.61572 11.7413 3.82274C11.8784 4.02977 12.0731 4.19218 12.3013 4.29C12.534 4.39272 12.7922 4.42336 13.0425 4.37797C13.2929 4.33258 13.5238 4.21325 13.7057 4.03536L13.752 3.98906C13.8953 3.84557 14.0655 3.73174 14.2529 3.65407C14.4402 3.57641 14.6411 3.53643 14.8439 3.53643C15.0467 3.53643 15.2475 3.57641 15.4349 3.65407C15.6222 3.73174 15.7924 3.84557 15.9357 3.98906C16.0792 4.13239 16.1931 4.30259 16.2707 4.48995C16.3484 4.6773 16.3884 4.87812 16.3884 5.08093C16.3884 5.28375 16.3484 5.48457 16.2707 5.67192C16.1931 5.85927 16.0792 6.02948 15.9357 6.17281L15.8894 6.21911C15.7116 6.40097 15.5922 6.63195 15.5468 6.88227C15.5014 7.13259 15.5321 7.39076 15.6348 7.6235V7.68523C15.7326 7.91346 15.895 8.10811 16.1021 8.24521C16.3091 8.38231 16.5517 8.45589 16.8 8.45688H16.9312C17.3405 8.45688 17.733 8.61947 18.0224 8.90889C18.3119 9.19832 18.4745 9.59086 18.4745 10.0002C18.4745 10.4095 18.3119 10.802 18.0224 11.0914C17.733 11.3809 17.3405 11.5435 16.9312 11.5435H16.8617C16.6134 11.5444 16.3708 11.618 16.1638 11.7551C15.9568 11.8922 15.7944 12.0869 15.6965 12.3151V12.3151Z" stroke="#C7C7C7" stroke-width="2" stroke-linecap="round" stroke-linejoin="round"/>
</svg>
